8888888888                888      8888888888                       
888                       888      888                              
888                       888      888                              
8888888  .d88b.   .d88b.  888      8888888 888d888 .d88b.   .d88b.  
888     d8P  Y8b d8P  Y8b 888      888     888P"  d8P  Y8b d8P  Y8b 
888     88888888 88888888 888      888     888    88888888 88888888 
888     Y8b.     Y8b.     888      888     888    Y8b.     Y8b.     
888      "Y8888   "Y8888  888      888     888     "Y8888   "Y8888  

Genre:Drama | Horror | Thriller 
Language:English
IMDb: 
http://www.imdb.com/title/tt1596365
Source:1080p.BluRay.X264.-BLOW Thanks!
Encoder:Tony

Format : MPEG-4
Format profile : Base Media
Codec ID : isom
File size : 2.25 GiB
Duration : 1h 35mn
Overall bit rate mode : Variable
Overall bit rate : 3 385 Kbps

Video
ID : 1
Format : AVC
Format/Info : Advanced Video Codec
Format profile : High@L5.1
Format settings, CABAC : Yes
Format settings, ReFrames : 3 frames
Codec ID : avc1
Codec ID/Info : Advanced Video Coding
Duration : 1h 35mn
Bit rate : 3 000 Kbps
Maximum bit rate : 14.4 Mbps
Width : 1 280 pixels
Height : 544 pixels
Display aspect ratio : 2.35:1
Frame rate mode : Constant
Frame rate : 23.976 fps
Color space : YUV
Chroma subsampling : 4:2:0
Bit depth : 8 bits
Scan type : Progressive
Bits/(Pixel*Frame) : 0.180
Stream size : 1.96 GiB (87%)
Writing library : x264

Audio
ID : 2
Format : AAC
Format/Info : Advanced Audio Codec
Format profile : LC
Codec ID : 40
Duration : 1h 35mn
Bit rate mode : Variable
Bit rate : 444 Kbps
Maximum bit rate : 572 Kbps
Channel(s) : 6 channels
Channel positions : Front: L C R, Side: L R, LFE
Sampling rate : 48.0 KHz
Compression mode : Lossy
Stream size : 303 MiB (13%)


Plot:
A young lawyer travels to a remote village where he discovers the vengeful ghost of a scorned woman is terrorizing the locals.


Screen Shots:
    
http://img526.imageshack.us/img526/1331/vlcsnap2012050507h50m12.png
 
http://img502.imageshack.us/img502/6691/vlcsnap2012050507h52m43.png
 
http://img406.imageshack.us/img406/6388/vlcsnap2012050507h53m57.png
 
http://img801.imageshack.us/img801/1660/vlcsnap2012050507h52m26.png


8888888888                888      8888888888                       
888                       888      888                              
888                       888      888                              
8888888  .d88b.   .d88b.  888      8888888 888d888 .d88b.   .d88b.  
888     d8P  Y8b d8P  Y8b 888      888     888P"  d8P  Y8b d8P  Y8b 
888     88888888 88888888 888      888     888    88888888 88888888 
888     Y8b.     Y8b.     888      888     888    Y8b.     Y8b.     
888      "Y8888   "Y8888  888      888     888     "Y8888   "Y8888  